<svg width="65" height="65" viewBox="0 0 65 65" fill="none" xmlns="http://www.w3.org/2000/svg">
<path d="M30.6197 0.0142987C24.395 0.22047 19.1008 1.28569 14.5939 3.23C11.6221 4.51571 9.10355 6.13931 6.91906 8.18098C6.45777 8.61336 5.49277 9.63277 5.07125 10.1367C2.8788 12.754 1.2749 15.8981 0.373529 19.3457C0.217115 19.9385 0.182651 20.1704 0.166745 20.683C0.124327 22.0975 0.609476 23.3575 1.58773 24.3683C2.21338 25.0154 2.96629 25.4364 3.84645 25.6282L4.14867 25.6941H32.5816H61.0144L61.3167 25.6282C62.279 25.4163 63.0876 24.9353 63.7503 24.1764C64.5934 23.2172 65.0441 21.9401 64.9964 20.6543C64.9698 20.0129 64.885 19.6006 64.5351 18.4495C63.5992 15.3712 62.218 12.7311 60.2986 10.3601C59.8983 9.86471 58.814 8.69354 58.3501 8.25829C55.7388 5.79282 52.6131 3.90578 48.8592 2.52844C44.8137 1.04516 40.2034 0.22047 34.835 0.0228891C34.1589 -0.00288229 31.2746 -0.00860928 30.6197 0.0142987ZM34.3048 3.43044C40.1955 3.61371 45.1742 4.59302 49.3762 6.39416C55.752 9.12593 59.8559 13.6502 61.6533 19.9242C61.7832 20.3823 61.8071 20.494 61.8177 20.746C61.8257 20.9865 61.8204 21.0724 61.7726 21.2328C61.6321 21.7425 61.2212 22.1491 60.7387 22.2608C60.4736 22.3209 4.68684 22.3209 4.42173 22.2608C4.17253 22.2035 3.96575 22.0832 3.77222 21.8885C3.33744 21.4533 3.2314 20.9665 3.41697 20.2678C3.98431 18.1345 4.92014 16.0126 6.06276 14.2716C9.30238 9.3321 14.7663 6.00472 22.2344 4.42121C25.8611 3.65093 30.1479 3.30159 34.3048 3.43044Z" fill="#EF243A"/>
<path d="M32.4095 8.73085C31.8368 8.80816 31.3835 9.2835 31.2828 9.90775C31.2616 10.028 31.2563 10.5291 31.2616 11.4054C31.2722 12.6825 31.2748 12.7283 31.3305 12.8915C31.5346 13.4785 32.0224 13.8536 32.5818 13.8536C33.1412 13.8536 33.629 13.4785 33.8331 12.8915C33.8888 12.7283 33.8914 12.6825 33.902 11.4054C33.9126 9.94497 33.9047 9.8333 33.7589 9.50972C33.5176 8.96566 32.9742 8.65354 32.4095 8.73085Z" fill="#EF243A"/>
<path d="M22.802 9.23201C22.5873 9.29501 22.407 9.40955 22.2267 9.6014C21.9404 9.90493 21.8317 10.2256 21.8503 10.6953C21.8609 10.9702 21.8688 11.0045 21.9722 11.225C22.0889 11.4799 22.0915 11.4799 23.4913 13.0548C24.0878 13.7248 24.1965 13.8107 24.5252 13.8966C24.9839 14.0112 25.4213 13.8795 25.758 13.5244C26.2087 13.049 26.2802 12.2759 25.9276 11.7204C25.8375 11.5801 24.109 9.61572 23.9685 9.48973C23.6583 9.22342 23.1891 9.12034 22.802 9.23201Z" fill="#EF243A"/>
<path d="M41.6832 9.22922C41.5135 9.28077 41.3226 9.38099 41.198 9.4898C41.0549 9.6158 39.3264 11.5802 39.2362 11.7205C38.8836 12.276 38.9552 13.0491 39.4059 13.5245C39.7611 13.8996 40.2542 14.0284 40.7341 13.8709C41.0178 13.7764 41.1238 13.6791 42.1206 12.5509C43.022 11.5315 43.0909 11.4484 43.1943 11.2222C43.2977 10.996 43.3056 10.9674 43.3136 10.6896C43.3295 10.2229 43.2208 9.90501 42.9371 9.60148C42.6111 9.24927 42.118 9.10323 41.6832 9.22922Z" fill="#EF243A"/>
<path d="M1.77638 29.5886C1.05264 29.7804 0.556885 30.4591 0.556885 31.2608C0.556885 32.034 1.05529 32.7155 1.76313 32.9102C1.90098 32.9474 3.4121 32.9532 15.0848 32.9532H28.2528L28.8334 33.503C29.801 34.4164 31.9113 36.4695 33.6954 38.2363C34.17 38.7031 34.6631 39.1784 34.7956 39.2872C35.538 39.9143 36.434 40.278 37.4547 40.3725C38.4091 40.4612 39.5305 40.1663 40.3762 39.6051C40.4716 39.5421 42.4387 38.0187 44.7505 36.2233L48.9498 32.9532H56.0971C62.3934 32.9532 63.263 32.9474 63.4009 32.9102C64.1087 32.7155 64.6071 32.034 64.6071 31.2608C64.6071 30.5192 64.167 29.8606 63.5175 29.6287L63.3213 29.5599H55.726H48.1306L47.9238 29.6372C47.8125 29.6831 47.672 29.7489 47.6136 29.789C47.5527 29.8291 45.5405 31.3926 43.1386 33.2624C40.4557 35.3499 38.6954 36.7015 38.5734 36.7673C38.2739 36.9306 38.0883 36.9706 37.7251 36.9563C37.3831 36.942 37.1445 36.8676 36.8847 36.6986C36.8052 36.6471 36.2352 36.1059 35.6148 35.4959C34.003 33.9067 32.9001 32.83 31.959 31.9252C30.2702 30.2987 29.7877 29.8635 29.52 29.726C29.1382 29.5313 30.3577 29.5456 15.4427 29.5485C4.23394 29.5513 1.89833 29.5571 1.77638 29.5886Z" fill="#EF9224"/>
<path d="M1.80268 36.0312C1.38911 36.1315 0.980845 36.4464 0.771409 36.8302C0.575229 37.1852 0.506301 37.6892 0.596437 38.1015C0.678621 38.4709 0.94373 38.8947 1.2327 39.1095C1.34669 39.1954 2.41508 39.7423 2.73586 39.8798C3.49407 40.2033 4.22047 40.3637 5.07677 40.3895C6.11069 40.421 6.91397 40.252 7.99296 39.7824L8.48607 39.5677L8.61067 39.6364C9.02954 39.8655 9.72412 40.1232 10.2384 40.2406C11.6541 40.5641 12.9982 40.4038 14.4775 39.7395L14.8566 39.5677L15.1217 39.7022C16.0072 40.1404 16.8502 40.358 17.8046 40.3895C18.8571 40.4267 19.7267 40.2434 20.8216 39.7566L21.2378 39.5705L21.5214 39.708C22.4334 40.1518 23.25 40.358 24.1911 40.3895C25.0845 40.4181 25.8825 40.2864 26.6858 39.9743C27.1656 39.7853 28.3984 39.2269 28.5309 39.1353C28.7165 39.0064 28.9657 38.7029 29.0691 38.4767C29.2016 38.196 29.2494 37.9498 29.2361 37.6205C29.2043 36.8359 28.7006 36.1945 27.9821 36.0312C27.558 35.9339 27.3883 35.9768 26.3703 36.4293C25.4848 36.8244 25.2012 36.9161 24.7028 36.9647C24.199 37.0134 23.6476 36.9332 23.1572 36.7385C23.0405 36.6927 22.7012 36.5324 22.4016 36.3835C21.7256 36.0427 21.6195 36.0083 21.2749 36.0083C20.9462 36.0112 20.8825 36.0312 19.9547 36.4436C18.9287 36.9017 18.6742 36.9705 18.0273 36.9705C17.3513 36.9705 16.9616 36.8588 16.092 36.4178C15.3762 36.0542 15.2437 36.0083 14.9123 36.0083C14.5756 36.0055 14.5093 36.0284 13.6 36.4321C12.529 36.9075 12.2983 36.9705 11.6382 36.9705C10.9701 36.9705 10.6043 36.8674 9.73738 36.4293C8.97917 36.0484 8.86252 36.0083 8.52318 36.0083C8.18649 36.0083 8.11226 36.0341 7.24536 36.4207C6.15841 36.9046 5.90921 36.9733 5.23584 36.9705C4.55981 36.9676 4.23107 36.8702 3.30319 36.4064C2.97446 36.2403 2.64307 36.0856 2.56619 36.0599C2.36471 35.994 2.00947 35.9797 1.80268 36.0312Z" fill="#EF243A"/>
<path d="M49.6813 36.0084C49.2598 36.0829 48.8356 36.3778 48.605 36.7529C48.4804 36.9562 48.3664 37.3084 48.3425 37.5576C48.2948 38.0988 48.544 38.7115 48.9496 39.0523C49.1166 39.1897 50.2142 39.751 50.6887 39.94C51.0705 40.0917 51.6908 40.2607 52.107 40.3294C52.5074 40.3953 53.5943 40.4039 53.9628 40.3466C54.6494 40.2349 55.2486 40.0488 55.9776 39.7252C56.2083 39.6221 56.415 39.5391 56.4363 39.5391C56.4575 39.5391 56.6059 39.6021 56.7623 39.6823C57.3668 39.9801 58.1091 40.2235 58.748 40.3266C59.1801 40.3981 60.0126 40.4153 60.4553 40.3581C60.9696 40.2951 61.4283 40.1862 61.8763 40.0259C62.3641 39.8512 63.7294 39.2499 63.8964 39.1353C64.2039 38.9206 64.4823 38.4853 64.5698 38.0844C64.6281 37.8239 64.6069 37.3857 64.5274 37.1366C64.4452 36.8875 64.2357 36.5582 64.0555 36.3978C63.7798 36.1544 63.3635 35.9884 63.0295 35.9884C62.783 35.9884 62.5523 36.0685 61.7543 36.4179C60.8795 36.8045 60.5534 36.9104 60.0656 36.962C59.6626 37.0049 59.2013 36.962 58.7904 36.8474C58.4484 36.7529 58.3477 36.7071 57.6876 36.3749C57.0062 36.0342 56.9108 36.0027 56.4681 36.0055C56.256 36.0055 56.0625 36.0199 55.9909 36.0428C55.9246 36.0628 55.5508 36.2232 55.1558 36.395C54.2809 36.7816 54.151 36.8302 53.7799 36.9104C53.5572 36.9562 53.3902 36.9705 53.0879 36.9705C52.3828 36.9705 52.0275 36.8675 51.0546 36.3835C50.6701 36.1945 50.352 36.0542 50.2433 36.0313C50.0763 35.9912 49.8271 35.9826 49.6813 36.0084Z" fill="#EF243A"/>
<path d="M4.13562 42.3769C2.11019 42.5573 0.450611 44.0491 0.0768082 46.0192C-0.0822569 46.8697 -0.00272434 47.5455 0.394938 48.7281C1.51104 52.0268 3.30583 54.7901 5.85882 57.1267C10.591 61.462 17.7595 64.0764 26.8819 64.7951C29.8511 65.0271 33.4009 65.0643 36.4126 64.8954C45.6224 64.3713 52.9951 62.0004 57.9659 57.9657C60.4314 55.967 62.311 53.5932 63.5862 50.8786C64.0952 49.7933 64.6281 48.3186 64.7712 47.6056C64.8481 47.2162 64.8561 46.4402 64.7845 46.0593C64.4902 44.4844 63.4165 43.213 61.9054 42.646C61.5555 42.5172 61.073 42.4112 60.6673 42.374C60.2856 42.3396 4.51737 42.3425 4.13562 42.3769ZM60.6965 45.8245C61.1843 45.9362 61.5926 46.3027 61.6695 46.6979C61.6986 46.8496 61.696 46.8668 61.574 47.2563C60.1742 51.7147 57.0354 55.2454 52.3244 57.6536C47.2926 60.2279 40.3998 61.588 32.3962 61.588C24.1195 61.588 17.0703 60.1448 12.0332 57.4217C9.99186 56.3163 8.36145 55.0736 6.92986 53.5302C5.75808 52.2645 4.9442 51.0933 4.2231 49.633C3.70879 48.5935 3.17593 47.1618 3.17327 46.8124C3.17062 46.3972 3.58684 45.9677 4.13297 45.8245C4.25757 45.793 8.83069 45.7873 32.3962 45.7844C57.0884 45.7816 60.5348 45.7873 60.6965 45.8245Z" fill="#EF243A"/>
</svg>
