<svg width="335" height="97" viewBox="0 0 335 97" fill="none" xmlns="http://www.w3.org/2000/svg">
<path d="M5.06463 78V19.8182H28.3601C32.6404 19.8182 36.2105 20.4527 39.0703 21.7216C41.9302 22.9905 44.0798 24.7519 45.5192 27.0057C46.9586 29.2405 47.6783 31.8163 47.6783 34.733C47.6783 37.0057 47.2237 39.0038 46.3146 40.7273C45.4055 42.4318 44.1555 43.8333 42.5646 44.9318C40.9927 46.0114 39.1934 46.7784 37.1669 47.233V47.8011C39.3828 47.8958 41.4567 48.5208 43.3885 49.6761C45.3393 50.8314 46.9207 52.4508 48.1328 54.5341C49.3449 56.5985 49.951 59.0606 49.951 61.9205C49.951 65.0076 49.184 67.7633 47.6499 70.1875C46.1347 72.5928 43.8904 74.4962 40.9169 75.8977C37.9434 77.2992 34.2786 78 29.9226 78H5.06463ZM17.3658 67.9432H27.3942C30.8222 67.9432 33.3222 67.2898 34.8942 65.983C36.4661 64.6572 37.2521 62.8958 37.2521 60.6989C37.2521 59.089 36.8639 57.6686 36.0874 56.4375C35.3108 55.2064 34.2029 54.2405 32.7635 53.5398C31.343 52.839 29.648 52.4886 27.6783 52.4886H17.3658V67.9432ZM17.3658 44.1648H26.4851C28.1707 44.1648 29.6669 43.8712 30.9737 43.2841C32.2995 42.678 33.3411 41.8258 34.0987 40.7273C34.8752 39.6288 35.2635 38.3125 35.2635 36.7784C35.2635 34.6761 34.5154 32.9811 33.0192 31.6932C31.5419 30.4053 29.4396 29.7614 26.7124 29.7614H17.3658V44.1648ZM85.7109 59.4205V34.3636H97.8132V78H86.1939V70.0739H85.7393C84.7545 72.6307 83.1162 74.6856 80.8246 76.2386C78.5518 77.7917 75.7772 78.5682 72.5007 78.5682C69.584 78.5682 67.0178 77.9053 64.8018 76.5795C62.5859 75.2538 60.853 73.3693 59.603 70.9261C58.3719 68.483 57.7469 65.5568 57.728 62.1477V34.3636H69.8303V59.9886C69.8492 62.5644 70.5405 64.6004 71.9041 66.0966C73.2678 67.5928 75.0954 68.3409 77.3871 68.3409C78.8454 68.3409 80.209 68.0095 81.478 67.3466C82.7469 66.6648 83.7696 65.661 84.5462 64.3352C85.3416 63.0095 85.7299 61.3712 85.7109 59.4205ZM107.494 78V34.3636H119.227V41.9773H119.681C120.477 39.2689 121.812 37.2235 123.687 35.8409C125.562 34.4394 127.721 33.7386 130.164 33.7386C130.77 33.7386 131.424 33.7765 132.124 33.8523C132.825 33.928 133.441 34.0322 133.971 34.1648V44.9034C133.403 44.733 132.617 44.5814 131.613 44.4489C130.609 44.3163 129.691 44.25 128.857 44.25C127.077 44.25 125.486 44.6383 124.085 45.4148C122.702 46.1723 121.603 47.233 120.789 48.5966C119.994 49.9602 119.596 51.5322 119.596 53.3125V78H107.494ZM157.856 95.2727C153.935 95.2727 150.574 94.733 147.771 93.6534C144.987 92.5928 142.771 91.1439 141.123 89.3068C139.475 87.4697 138.405 85.4053 137.913 83.1136L149.106 81.608C149.447 82.4792 149.987 83.2936 150.725 84.0511C151.464 84.8087 152.439 85.4148 153.651 85.8693C154.882 86.3428 156.379 86.5795 158.14 86.5795C160.772 86.5795 162.941 85.9356 164.646 84.6477C166.369 83.3788 167.231 81.2481 167.231 78.2557V70.2727H166.719C166.189 71.4848 165.394 72.6307 164.333 73.7102C163.272 74.7898 161.909 75.6705 160.242 76.3523C158.576 77.0341 156.587 77.375 154.276 77.375C151 77.375 148.017 76.6174 145.327 75.1023C142.657 73.5682 140.526 71.2292 138.935 68.0852C137.363 64.9223 136.577 60.9261 136.577 56.0966C136.577 51.1534 137.382 47.0246 138.992 43.7102C140.602 40.3958 142.742 37.9148 145.413 36.267C148.102 34.6193 151.047 33.7955 154.248 33.7955C156.691 33.7955 158.737 34.2121 160.384 35.0455C162.032 35.8598 163.358 36.8826 164.362 38.1136C165.384 39.3258 166.17 40.5189 166.719 41.6932H167.174V34.3636H179.191V78.4261C179.191 82.1383 178.282 85.2443 176.464 87.7443C174.646 90.2443 172.127 92.1193 168.907 93.3693C165.706 94.6383 162.022 95.2727 157.856 95.2727ZM158.112 68.2841C160.062 68.2841 161.71 67.8011 163.055 66.8352C164.418 65.8504 165.46 64.4489 166.18 62.6307C166.918 60.7936 167.288 58.5966 167.288 56.0398C167.288 53.483 166.928 51.267 166.208 49.392C165.488 47.4981 164.447 46.0303 163.083 44.9886C161.719 43.947 160.062 43.4261 158.112 43.4261C156.123 43.4261 154.447 43.9659 153.083 45.0455C151.719 46.1061 150.687 47.5833 149.987 49.4773C149.286 51.3712 148.935 53.5587 148.935 56.0398C148.935 58.5587 149.286 60.7367 149.987 62.5739C150.706 64.392 151.738 65.803 153.083 66.8068C154.447 67.7917 156.123 68.2841 158.112 68.2841Z" fill="#F5F5F5"/>
<g filter="url(#filter0_d_1_146)">
<path d="M209.208 78.8523C204.719 78.8523 200.856 77.9432 197.617 76.125C194.397 74.2879 191.916 71.6932 190.174 68.3409C188.432 64.9697 187.56 60.983 187.56 56.3807C187.56 51.892 188.432 47.9527 190.174 44.5625C191.916 41.1723 194.369 38.5303 197.532 36.6364C200.714 34.7424 204.445 33.7955 208.725 33.7955C211.604 33.7955 214.284 34.2595 216.765 35.1875C219.265 36.0966 221.443 37.4697 223.299 39.3068C225.174 41.1439 226.632 43.4545 227.674 46.2386C228.716 49.0038 229.237 52.2424 229.237 55.9545V59.2784H192.39V51.7784H217.844C217.844 50.036 217.466 48.4924 216.708 47.1477C215.951 45.803 214.899 44.7519 213.555 43.9943C212.229 43.2178 210.685 42.8295 208.924 42.8295C207.087 42.8295 205.458 43.2557 204.038 44.108C202.636 44.9413 201.538 46.0682 200.742 47.4886C199.947 48.8902 199.54 50.4527 199.521 52.1761V59.3068C199.521 61.4659 199.918 63.3314 200.714 64.9034C201.528 66.4754 202.674 67.6875 204.151 68.5398C205.629 69.392 207.38 69.8182 209.407 69.8182C210.752 69.8182 211.983 69.6288 213.1 69.25C214.218 68.8712 215.174 68.303 215.969 67.5455C216.765 66.7879 217.371 65.8598 217.788 64.7614L228.981 65.5C228.413 68.1894 227.248 70.5379 225.487 72.5455C223.744 74.5341 221.49 76.0871 218.725 77.2045C215.979 78.303 212.807 78.8523 209.208 78.8523ZM237.021 78V69.1364L257.731 49.9602C259.492 48.2557 260.969 46.7216 262.163 45.358C263.375 43.9943 264.293 42.6591 264.918 41.3523C265.543 40.0265 265.856 38.5966 265.856 37.0625C265.856 35.358 265.468 33.8902 264.691 32.6591C263.915 31.4091 262.854 30.4527 261.509 29.7898C260.165 29.108 258.64 28.767 256.935 28.767C255.155 28.767 253.602 29.1269 252.276 29.8466C250.951 30.5663 249.928 31.5985 249.208 32.9432C248.488 34.2879 248.129 35.8883 248.129 37.7443H236.452C236.452 33.9375 237.314 30.6326 239.038 27.8295C240.761 25.0265 243.176 22.858 246.282 21.3239C249.388 19.7898 252.968 19.0227 257.021 19.0227C261.187 19.0227 264.814 19.7614 267.901 21.2386C271.007 22.697 273.422 24.7235 275.146 27.3182C276.869 29.9129 277.731 32.8864 277.731 36.2386C277.731 38.4356 277.295 40.6042 276.424 42.7443C275.572 44.8845 274.047 47.2614 271.85 49.875C269.653 52.4697 266.557 55.5852 262.56 59.2216L254.066 67.5455V67.9432H278.498V78H237.021ZM307.411 78.8523C302.923 78.8523 299.059 77.9432 295.82 76.125C292.601 74.2879 290.12 71.6932 288.377 68.3409C286.635 64.9697 285.763 60.983 285.763 56.3807C285.763 51.892 286.635 47.9527 288.377 44.5625C290.12 41.1723 292.572 38.5303 295.735 36.6364C298.917 34.7424 302.648 33.7955 306.928 33.7955C309.807 33.7955 312.487 34.2595 314.968 35.1875C317.468 36.0966 319.646 37.4697 321.502 39.3068C323.377 41.1439 324.835 43.4545 325.877 46.2386C326.919 49.0038 327.44 52.2424 327.44 55.9545V59.2784H290.593V51.7784H316.048C316.048 50.036 315.669 48.4924 314.911 47.1477C314.154 45.803 313.103 44.7519 311.758 43.9943C310.432 43.2178 308.888 42.8295 307.127 42.8295C305.29 42.8295 303.661 43.2557 302.241 44.108C300.839 44.9413 299.741 46.0682 298.945 47.4886C298.15 48.8902 297.743 50.4527 297.724 52.1761V59.3068C297.724 61.4659 298.121 63.3314 298.917 64.9034C299.731 66.4754 300.877 67.6875 302.354 68.5398C303.832 69.392 305.584 69.8182 307.61 69.8182C308.955 69.8182 310.186 69.6288 311.303 69.25C312.421 68.8712 313.377 68.303 314.173 67.5455C314.968 66.7879 315.574 65.8598 315.991 64.7614L327.184 65.5C326.616 68.1894 325.451 70.5379 323.69 72.5455C321.947 74.5341 319.693 76.0871 316.928 77.2045C314.182 78.303 311.01 78.8523 307.411 78.8523Z" fill="#EF243A"/>
</g>
<defs>
<filter id="filter0_d_1_146" x="178.56" y="9.02271" width="155.879" height="75.8296" filterUnits="userSpaceOnUse" color-interpolation-filters="sRGB">
<feFlood flood-opacity="0" result="BackgroundImageFix"/>
<feColorMatrix in="SourceAlpha" type="matrix" values="0 0 0 0 0 0 0 0 0 0 0 0 0 0 0 0 0 0 127 0" result="hardAlpha"/>
<feOffset dx="-1" dy="-2"/>
<feGaussianBlur stdDeviation="4"/>
<feComposite in2="hardAlpha" operator="out"/>
<feColorMatrix type="matrix" values="0 0 0 0 0 0 0 0 0 0 0 0 0 0 0 0 0 0 0.5 0"/>
<feBlend mode="normal" in2="BackgroundImageFix" result="effect1_dropShadow_1_146"/>
<feBlend mode="normal" in="SourceGraphic" in2="effect1_dropShadow_1_146" result="shape"/>
</filter>
</defs>
</svg>
