<svg width="313" height="106" viewBox="0 0 313 106" fill="none" xmlns="http://www.w3.org/2000/svg">
<path d="M5.41619 78V19.8182H28.7116C32.992 19.8182 36.562 20.4527 39.4219 21.7216C42.2817 22.9905 44.4313 24.7519 45.8707 27.0057C47.3101 29.2405 48.0298 31.8163 48.0298 34.733C48.0298 37.0057 47.5753 39.0038 46.6662 40.7273C45.7571 42.4318 44.5071 43.8333 42.9162 44.9318C41.3442 46.0114 39.545 46.7784 37.5185 47.233V47.8011C39.7344 47.8958 41.8082 48.5208 43.7401 49.6761C45.6908 50.8314 47.2723 52.4508 48.4844 54.5341C49.6965 56.5985 50.3026 59.0606 50.3026 61.9205C50.3026 65.0076 49.5355 67.7633 48.0014 70.1875C46.4863 72.5928 44.242 74.4962 41.2685 75.8977C38.295 77.2992 34.6302 78 30.2741 78H5.41619ZM17.7173 67.9432H27.7457C31.1738 67.9432 33.6738 67.2898 35.2457 65.983C36.8177 64.6572 37.6037 62.8958 37.6037 60.6989C37.6037 59.089 37.2154 57.6686 36.4389 56.4375C35.6624 55.2064 34.5545 54.2405 33.1151 53.5398C31.6946 52.839 29.9995 52.4886 28.0298 52.4886H17.7173V67.9432ZM17.7173 44.1648H26.8366C28.5223 44.1648 30.0185 43.8712 31.3253 43.2841C32.651 42.678 33.6927 41.8258 34.4503 40.7273C35.2268 39.6288 35.6151 38.3125 35.6151 36.7784C35.6151 34.6761 34.867 32.9811 33.3707 31.6932C31.8935 30.4053 29.7912 29.7614 27.0639 29.7614H17.7173V44.1648ZM86.0625 59.4205V34.3636H98.1648V78H86.5455V70.0739H86.0909C85.1061 72.6307 83.4678 74.6856 81.1761 76.2386C78.9034 77.7917 76.1288 78.5682 72.8523 78.5682C69.9356 78.5682 67.3693 77.9053 65.1534 76.5795C62.9375 75.2538 61.2045 73.3693 59.9545 70.9261C58.7235 68.483 58.0985 65.5568 58.0795 62.1477V34.3636H70.1818V59.9886C70.2008 62.5644 70.892 64.6004 72.2557 66.0966C73.6193 67.5928 75.447 68.3409 77.7386 68.3409C79.197 68.3409 80.5606 68.0095 81.8295 67.3466C83.0985 66.6648 84.1212 65.661 84.8977 64.3352C85.6932 63.0095 86.0814 61.3712 86.0625 59.4205ZM127.504 95.2727C123.584 95.2727 120.222 94.733 117.419 93.6534C114.635 92.5928 112.419 91.1439 110.771 89.3068C109.124 87.4697 108.054 85.4053 107.561 83.1136L118.754 81.608C119.095 82.4792 119.635 83.2936 120.374 84.0511C121.112 84.8087 122.088 85.4148 123.3 85.8693C124.531 86.3428 126.027 86.5795 127.788 86.5795C130.421 86.5795 132.589 85.9356 134.294 84.6477C136.018 83.3788 136.879 81.2481 136.879 78.2557V70.2727H136.368C135.838 71.4848 135.042 72.6307 133.982 73.7102C132.921 74.7898 131.557 75.6705 129.891 76.3523C128.224 77.0341 126.235 77.375 123.925 77.375C120.648 77.375 117.665 76.6174 114.976 75.1023C112.305 73.5682 110.175 71.2292 108.584 68.0852C107.012 64.9223 106.226 60.9261 106.226 56.0966C106.226 51.1534 107.031 47.0246 108.641 43.7102C110.25 40.3958 112.391 37.9148 115.061 36.267C117.75 34.6193 120.696 33.7955 123.896 33.7955C126.339 33.7955 128.385 34.2121 130.033 35.0455C131.68 35.8598 133.006 36.8826 134.01 38.1136C135.033 39.3258 135.819 40.5189 136.368 41.6932H136.822V34.3636H148.839V78.4261C148.839 82.1383 147.93 85.2443 146.112 87.7443C144.294 90.2443 141.775 92.1193 138.555 93.3693C135.355 94.6383 131.671 95.2727 127.504 95.2727ZM127.76 68.2841C129.711 68.2841 131.358 67.8011 132.703 66.8352C134.067 65.8504 135.108 64.4489 135.828 62.6307C136.567 60.7936 136.936 58.5966 136.936 56.0398C136.936 53.483 136.576 51.267 135.857 49.392C135.137 47.4981 134.095 46.0303 132.732 44.9886C131.368 43.947 129.711 43.4261 127.76 43.4261C125.771 43.4261 124.095 43.9659 122.732 45.0455C121.368 46.1061 120.336 47.5833 119.635 49.4773C118.934 51.3712 118.584 53.5587 118.584 56.0398C118.584 58.5587 118.934 60.7367 119.635 62.5739C120.355 64.392 121.387 65.803 122.732 66.8068C124.095 67.7917 125.771 68.2841 127.76 68.2841Z" fill="#F5F5F5"/>
<g filter="url(#filter0_d_1_146)">
<path d="M264.021 87V78.1364L284.731 58.9602C286.492 57.2557 287.969 55.7216 289.163 54.358C290.375 52.9943 291.293 51.6591 291.918 50.3523C292.543 49.0265 292.856 47.5966 292.856 46.0625C292.856 44.358 292.468 42.8902 291.691 41.6591C290.915 40.4091 289.854 39.4527 288.509 38.7898C287.165 38.108 285.64 37.767 283.935 37.767C282.155 37.767 280.602 38.1269 279.276 38.8466C277.951 39.5663 276.928 40.5985 276.208 41.9432C275.488 43.2879 275.129 44.8883 275.129 46.7443H263.452C263.452 42.9375 264.314 39.6326 266.038 36.8295C267.761 34.0265 270.176 31.858 273.282 30.3239C276.388 28.7898 279.968 28.0227 284.021 28.0227C288.187 28.0227 291.814 28.7614 294.901 30.2386C298.007 31.697 300.422 33.7235 302.146 36.3182C303.869 38.9129 304.731 41.8864 304.731 45.2386C304.731 47.4356 304.295 49.6042 303.424 51.7443C302.572 53.8845 301.047 56.2614 298.85 58.875C296.653 61.4697 293.557 64.5852 289.56 68.2216L281.066 76.5455V76.9432H305.498V87H264.021Z" fill="#EF9224"/>
</g>
<g filter="url(#filter1_d_1_146)">
<path d="M153.021 87V78.1364L173.731 58.9602C175.492 57.2557 176.969 55.7216 178.163 54.358C179.375 52.9943 180.293 51.6591 180.918 50.3523C181.543 49.0265 181.856 47.5966 181.856 46.0625C181.856 44.358 181.468 42.8902 180.691 41.6591C179.915 40.4091 178.854 39.4527 177.509 38.7898C176.165 38.108 174.64 37.767 172.935 37.767C171.155 37.767 169.602 38.1269 168.276 38.8466C166.951 39.5663 165.928 40.5985 165.208 41.9432C164.488 43.2879 164.129 44.8883 164.129 46.7443H152.452C152.452 42.9375 153.314 39.6326 155.038 36.8295C156.761 34.0265 159.176 31.858 162.282 30.3239C165.388 28.7898 168.968 28.0227 173.021 28.0227C177.187 28.0227 180.814 28.7614 183.901 30.2386C187.007 31.697 189.422 33.7235 191.146 36.3182C192.869 38.9129 193.731 41.8864 193.731 45.2386C193.731 47.4356 193.295 49.6042 192.424 51.7443C191.572 53.8845 190.047 56.2614 187.85 58.875C185.653 61.4697 182.557 64.5852 178.56 68.2216L170.066 76.5455V76.9432H194.498V87H153.021Z" fill="#EF9224"/>
</g>
<path d="M226.62 27.0143C220.395 27.2205 215.101 28.2857 210.594 30.23C207.622 31.5157 205.104 33.1393 202.919 35.181C202.458 35.6134 201.493 36.6328 201.071 37.1367C198.879 39.754 197.275 42.8981 196.374 46.3457C196.217 46.9385 196.183 47.1704 196.167 47.683C196.124 49.0975 196.609 50.3575 197.588 51.3683C198.213 52.0154 198.966 52.4364 199.846 52.6282L200.149 52.6941H228.582H257.014L257.317 52.6282C258.279 52.4163 259.088 51.9353 259.75 51.1764C260.593 50.2172 261.044 48.9401 260.996 47.6543C260.97 47.0129 260.885 46.6006 260.535 45.4495C259.599 42.3712 258.218 39.7311 256.299 37.3601C255.898 36.8647 254.814 35.6935 254.35 35.2583C251.739 32.7928 248.613 30.9058 244.859 29.5284C240.814 28.0452 236.203 27.2205 230.835 27.0229C230.159 26.9971 227.275 26.9914 226.62 27.0143ZM230.305 30.4304C236.195 30.6137 241.174 31.593 245.376 33.3942C251.752 36.1259 255.856 40.6502 257.653 46.9242C257.783 47.3823 257.807 47.494 257.818 47.746C257.826 47.9865 257.82 48.0724 257.773 48.2328C257.632 48.7425 257.221 49.1491 256.739 49.2608C256.474 49.3209 200.687 49.3209 200.422 49.2608C200.173 49.2035 199.966 49.0832 199.772 48.8885C199.337 48.4533 199.231 47.9665 199.417 47.2678C199.984 45.1345 200.92 43.0126 202.063 41.2716C205.302 36.3321 210.766 33.0047 218.234 31.4212C221.861 30.6509 226.148 30.3016 230.305 30.4304Z" fill="#EF9224"/>
<path d="M228.409 35.7309C227.837 35.8082 227.384 36.2835 227.283 36.9077C227.262 37.028 227.256 37.5291 227.262 38.4054C227.272 39.6825 227.275 39.7283 227.33 39.8915C227.535 40.4785 228.022 40.8536 228.582 40.8536C229.141 40.8536 229.629 40.4785 229.833 39.8915C229.889 39.7283 229.891 39.6825 229.902 38.4054C229.913 36.945 229.905 36.8333 229.759 36.5097C229.518 35.9657 228.974 35.6535 228.409 35.7309Z" fill="#EF9224"/>
<path d="M218.802 36.232C218.587 36.295 218.407 36.4095 218.227 36.6014C217.94 36.9049 217.832 37.2256 217.85 37.6953C217.861 37.9702 217.869 38.0045 217.972 38.225C218.089 38.4799 218.092 38.4799 219.491 40.0548C220.088 40.7248 220.196 40.8107 220.525 40.8966C220.984 41.0112 221.421 40.8795 221.758 40.5244C222.209 40.049 222.28 39.2759 221.928 38.7204C221.838 38.5801 220.109 36.6157 219.968 36.4897C219.658 36.2234 219.189 36.1203 218.802 36.232Z" fill="#EF9224"/>
<path d="M237.683 36.2292C237.514 36.2808 237.323 36.381 237.198 36.4898C237.055 36.6158 235.326 38.5802 235.236 38.7205C234.884 39.276 234.955 40.0491 235.406 40.5245C235.761 40.8996 236.254 41.0284 236.734 40.8709C237.018 40.7764 237.124 40.6791 238.121 39.5509C239.022 38.5315 239.091 38.4484 239.194 38.2222C239.298 37.996 239.306 37.9674 239.314 37.6896C239.33 37.2229 239.221 36.905 238.937 36.6015C238.611 36.2493 238.118 36.1032 237.683 36.2292Z" fill="#EF9224"/>
<path d="M197.776 56.5886C197.053 56.7804 196.557 57.4591 196.557 58.2608C196.557 59.034 197.055 59.7155 197.763 59.9102C197.901 59.9474 199.412 59.9532 211.085 59.9532H224.253L224.833 60.503C225.801 61.4164 227.911 63.4695 229.695 65.2363C230.17 65.7031 230.663 66.1784 230.796 66.2872C231.538 66.9143 232.434 67.278 233.455 67.3725C234.409 67.4612 235.53 67.1663 236.376 66.6051C236.472 66.5421 238.439 65.0187 240.75 63.2233L244.95 59.9532H252.097C258.393 59.9532 259.263 59.9474 259.401 59.9102C260.109 59.7155 260.607 59.034 260.607 58.2608C260.607 57.5192 260.167 56.8606 259.518 56.6287L259.321 56.5599H251.726H244.131L243.924 56.6372C243.812 56.6831 243.672 56.7489 243.614 56.789C243.553 56.8291 241.54 58.3926 239.139 60.2624C236.456 62.3499 234.695 63.7015 234.573 63.7673C234.274 63.9306 234.088 63.9706 233.725 63.9563C233.383 63.942 233.145 63.8676 232.885 63.6986C232.805 63.6471 232.235 63.1059 231.615 62.4959C230.003 60.9067 228.9 59.83 227.959 58.9252C226.27 57.2987 225.788 56.8635 225.52 56.726C225.138 56.5313 226.358 56.5456 211.443 56.5485C200.234 56.5513 197.898 56.5571 197.776 56.5886Z" fill="#EF9224"/>
<path d="M197.803 63.0312C197.389 63.1315 196.981 63.4464 196.771 63.8302C196.575 64.1852 196.506 64.6892 196.596 65.1015C196.679 65.4709 196.944 65.8947 197.233 66.1095C197.347 66.1954 198.415 66.7423 198.736 66.8798C199.494 67.2033 200.22 67.3637 201.077 67.3895C202.111 67.421 202.914 67.252 203.993 66.7824L204.486 66.5677L204.611 66.6364C205.03 66.8655 205.724 67.1232 206.238 67.2406C207.654 67.5641 208.998 67.4038 210.478 66.7395L210.857 66.5677L211.122 66.7022C212.007 67.1404 212.85 67.358 213.805 67.3895C214.857 67.4267 215.727 67.2434 216.822 66.7566L217.238 66.5705L217.521 66.708C218.433 67.1518 219.25 67.358 220.191 67.3895C221.085 67.4181 221.882 67.2864 222.686 66.9743C223.166 66.7853 224.398 66.2269 224.531 66.1353C224.716 66.0064 224.966 65.7029 225.069 65.4767C225.202 65.196 225.249 64.9498 225.236 64.6205C225.204 63.8359 224.701 63.1945 223.982 63.0312C223.558 62.9339 223.388 62.9768 222.37 63.4293C221.485 63.8244 221.201 63.9161 220.703 63.9647C220.199 64.0134 219.648 63.9332 219.157 63.7385C219.041 63.6927 218.701 63.5324 218.402 63.3835C217.726 63.0427 217.62 63.0083 217.275 63.0083C216.946 63.0112 216.883 63.0312 215.955 63.4436C214.929 63.9017 214.674 63.9705 214.027 63.9705C213.351 63.9705 212.962 63.8588 212.092 63.4178C211.376 63.0542 211.244 63.0083 210.912 63.0083C210.576 63.0055 210.509 63.0284 209.6 63.4321C208.529 63.9075 208.298 63.9705 207.638 63.9705C206.97 63.9705 206.604 63.8674 205.737 63.4293C204.979 63.0484 204.863 63.0083 204.523 63.0083C204.186 63.0083 204.112 63.0341 203.245 63.4207C202.158 63.9046 201.909 63.9733 201.236 63.9705C200.56 63.9676 200.231 63.8702 199.303 63.4064C198.974 63.2403 198.643 63.0856 198.566 63.0599C198.365 62.994 198.009 62.9797 197.803 63.0312Z" fill="white"/>
<path d="M245.681 63.0084C245.26 63.0829 244.836 63.3778 244.605 63.7529C244.48 63.9562 244.366 64.3084 244.342 64.5576C244.295 65.0988 244.544 65.7115 244.95 66.0523C245.117 66.1897 246.214 66.751 246.689 66.94C247.07 67.0917 247.691 67.2607 248.107 67.3294C248.507 67.3953 249.594 67.4039 249.963 67.3466C250.649 67.2349 251.249 67.0488 251.978 66.7252C252.208 66.6221 252.415 66.5391 252.436 66.5391C252.457 66.5391 252.606 66.6021 252.762 66.6823C253.367 66.9801 254.109 67.2235 254.748 67.3266C255.18 67.3981 256.013 67.4153 256.455 67.3581C256.97 67.2951 257.428 67.1862 257.876 67.0259C258.364 66.8512 259.729 66.2499 259.896 66.1353C260.204 65.9206 260.482 65.4853 260.57 65.0844C260.628 64.8239 260.607 64.3857 260.527 64.1366C260.445 63.8875 260.236 63.5582 260.055 63.3978C259.78 63.1544 259.364 62.9884 259.03 62.9884C258.783 62.9884 258.552 63.0685 257.754 63.4179C256.879 63.8045 256.553 63.9104 256.066 63.962C255.663 64.0049 255.201 63.962 254.79 63.8474C254.448 63.7529 254.348 63.7071 253.688 63.3749C253.006 63.0342 252.911 63.0027 252.468 63.0055C252.256 63.0055 252.062 63.0199 251.991 63.0428C251.925 63.0628 251.551 63.2232 251.156 63.395C250.281 63.7816 250.151 63.8302 249.78 63.9104C249.557 63.9562 249.39 63.9705 249.088 63.9705C248.383 63.9705 248.028 63.8675 247.055 63.3835C246.67 63.1945 246.352 63.0542 246.243 63.0313C246.076 62.9912 245.827 62.9826 245.681 63.0084Z" fill="white"/>
<path d="M200.136 69.3769C198.11 69.5573 196.451 71.0491 196.077 73.0192C195.918 73.8697 195.997 74.5455 196.395 75.7281C197.511 79.0268 199.306 81.7901 201.859 84.1267C206.591 88.462 213.76 91.0764 222.882 91.7951C225.851 92.0271 229.401 92.0643 232.413 91.8954C241.622 91.3713 248.995 89.0004 253.966 84.9657C256.431 82.967 258.311 80.5932 259.586 77.8786C260.095 76.7933 260.628 75.3186 260.771 74.6056C260.848 74.2162 260.856 73.4402 260.784 73.0593C260.49 71.4844 259.417 70.213 257.905 69.646C257.555 69.5172 257.073 69.4112 256.667 69.374C256.286 69.3396 200.517 69.3425 200.136 69.3769ZM256.697 72.8245C257.184 72.9362 257.593 73.3027 257.669 73.6979C257.699 73.8496 257.696 73.8668 257.574 74.2563C256.174 78.7147 253.035 82.2454 248.324 84.6536C243.293 87.2279 236.4 88.588 228.396 88.588C220.119 88.588 213.07 87.1448 208.033 84.4217C205.992 83.3163 204.361 82.0736 202.93 80.5302C201.758 79.2645 200.944 78.0933 200.223 76.633C199.709 75.5935 199.176 74.1618 199.173 73.8124C199.171 73.3972 199.587 72.9677 200.133 72.8245C200.258 72.793 204.831 72.7873 228.396 72.7844C253.088 72.7816 256.535 72.7873 256.697 72.8245Z" fill="#EF9224"/>
<defs>
<filter id="filter0_d_1_146" x="254.452" y="18.0227" width="58.0455" height="74.9773" filterUnits="userSpaceOnUse" color-interpolation-filters="sRGB">
<feFlood flood-opacity="0" result="BackgroundImageFix"/>
<feColorMatrix in="SourceAlpha" type="matrix" values="0 0 0 0 0 0 0 0 0 0 0 0 0 0 0 0 0 0 127 0" result="hardAlpha"/>
<feOffset dx="-1" dy="-2"/>
<feGaussianBlur stdDeviation="4"/>
<feComposite in2="hardAlpha" operator="out"/>
<feColorMatrix type="matrix" values="0 0 0 0 0 0 0 0 0 0 0 0 0 0 0 0 0 0 0.5 0"/>
<feBlend mode="normal" in2="BackgroundImageFix" result="effect1_dropShadow_1_146"/>
<feBlend mode="normal" in="SourceGraphic" in2="effect1_dropShadow_1_146" result="shape"/>
</filter>
<filter id="filter1_d_1_146" x="143.452" y="18.0227" width="58.0455" height="74.9773" filterUnits="userSpaceOnUse" color-interpolation-filters="sRGB">
<feFlood flood-opacity="0" result="BackgroundImageFix"/>
<feColorMatrix in="SourceAlpha" type="matrix" values="0 0 0 0 0 0 0 0 0 0 0 0 0 0 0 0 0 0 127 0" result="hardAlpha"/>
<feOffset dx="-1" dy="-2"/>
<feGaussianBlur stdDeviation="4"/>
<feComposite in2="hardAlpha" operator="out"/>
<feColorMatrix type="matrix" values="0 0 0 0 0 0 0 0 0 0 0 0 0 0 0 0 0 0 0.5 0"/>
<feBlend mode="normal" in2="BackgroundImageFix" result="effect1_dropShadow_1_146"/>
<feBlend mode="normal" in="SourceGraphic" in2="effect1_dropShadow_1_146" result="shape"/>
</filter>
</defs>
</svg>
