<svg width="274" height="107" viewBox="0 0 274 107" fill="none" xmlns="http://www.w3.org/2000/svg">
<path d="M5.41619 78V19.8182H28.7116C32.992 19.8182 36.562 20.4527 39.4219 21.7216C42.2817 22.9905 44.4313 24.7519 45.8707 27.0057C47.3101 29.2405 48.0298 31.8163 48.0298 34.733C48.0298 37.0057 47.5753 39.0038 46.6662 40.7273C45.7571 42.4318 44.5071 43.8333 42.9162 44.9318C41.3442 46.0114 39.545 46.7784 37.5185 47.233V47.8011C39.7344 47.8958 41.8082 48.5208 43.7401 49.6761C45.6908 50.8314 47.2723 52.4508 48.4844 54.5341C49.6965 56.5985 50.3026 59.0606 50.3026 61.9205C50.3026 65.0076 49.5355 67.7633 48.0014 70.1875C46.4863 72.5928 44.242 74.4962 41.2685 75.8977C38.295 77.2992 34.6302 78 30.2741 78H5.41619ZM17.7173 67.9432H27.7457C31.1738 67.9432 33.6738 67.2898 35.2457 65.983C36.8177 64.6572 37.6037 62.8958 37.6037 60.6989C37.6037 59.089 37.2154 57.6686 36.4389 56.4375C35.6624 55.2064 34.5545 54.2405 33.1151 53.5398C31.6946 52.839 29.9995 52.4886 28.0298 52.4886H17.7173V67.9432ZM17.7173 44.1648H26.8366C28.5223 44.1648 30.0185 43.8712 31.3253 43.2841C32.651 42.678 33.6927 41.8258 34.4503 40.7273C35.2268 39.6288 35.6151 38.3125 35.6151 36.7784C35.6151 34.6761 34.867 32.9811 33.3707 31.6932C31.8935 30.4053 29.7912 29.7614 27.0639 29.7614H17.7173V44.1648ZM86.0625 59.4205V34.3636H98.1648V78H86.5455V70.0739H86.0909C85.1061 72.6307 83.4678 74.6856 81.1761 76.2386C78.9034 77.7917 76.1288 78.5682 72.8523 78.5682C69.9356 78.5682 67.3693 77.9053 65.1534 76.5795C62.9375 75.2538 61.2045 73.3693 59.9545 70.9261C58.7235 68.483 58.0985 65.5568 58.0795 62.1477V34.3636H70.1818V59.9886C70.2008 62.5644 70.892 64.6004 72.2557 66.0966C73.6193 67.5928 75.447 68.3409 77.7386 68.3409C79.197 68.3409 80.5606 68.0095 81.8295 67.3466C83.0985 66.6648 84.1212 65.661 84.8977 64.3352C85.6932 63.0095 86.0814 61.3712 86.0625 59.4205ZM127.504 95.2727C123.584 95.2727 120.222 94.733 117.419 93.6534C114.635 92.5928 112.419 91.1439 110.771 89.3068C109.124 87.4697 108.054 85.4053 107.561 83.1136L118.754 81.608C119.095 82.4792 119.635 83.2936 120.374 84.0511C121.112 84.8087 122.088 85.4148 123.3 85.8693C124.531 86.3428 126.027 86.5795 127.788 86.5795C130.421 86.5795 132.589 85.9356 134.294 84.6477C136.018 83.3788 136.879 81.2481 136.879 78.2557V70.2727H136.368C135.838 71.4848 135.042 72.6307 133.982 73.7102C132.921 74.7898 131.557 75.6705 129.891 76.3523C128.224 77.0341 126.235 77.375 123.925 77.375C120.648 77.375 117.665 76.6174 114.976 75.1023C112.305 73.5682 110.175 71.2292 108.584 68.0852C107.012 64.9223 106.226 60.9261 106.226 56.0966C106.226 51.1534 107.031 47.0246 108.641 43.7102C110.25 40.3958 112.391 37.9148 115.061 36.267C117.75 34.6193 120.696 33.7955 123.896 33.7955C126.339 33.7955 128.385 34.2121 130.033 35.0455C131.68 35.8598 133.006 36.8826 134.01 38.1136C135.033 39.3258 135.819 40.5189 136.368 41.6932H136.822V34.3636H148.839V78.4261C148.839 82.1383 147.93 85.2443 146.112 87.7443C144.294 90.2443 141.775 92.1193 138.555 93.3693C135.355 94.6383 131.671 95.2727 127.504 95.2727ZM127.76 68.2841C129.711 68.2841 131.358 67.8011 132.703 66.8352C134.067 65.8504 135.108 64.4489 135.828 62.6307C136.567 60.7936 136.936 58.5966 136.936 56.0398C136.936 53.483 136.576 51.267 135.857 49.392C135.137 47.4981 134.095 46.0303 132.732 44.9886C131.368 43.947 129.711 43.4261 127.76 43.4261C125.771 43.4261 124.095 43.9659 122.732 45.0455C121.368 46.1061 120.336 47.5833 119.635 49.4773C118.934 51.3712 118.584 53.5587 118.584 56.0398C118.584 58.5587 118.934 60.7367 119.635 62.5739C120.355 64.392 121.387 65.803 122.732 66.8068C124.095 67.7917 125.771 68.2841 127.76 68.2841Z" fill="#F5F5F5"/>
<g filter="url(#filter0_d_1_146)">
<path d="M225.021 88V79.1364L245.731 59.9602C247.492 58.2557 248.969 56.7216 250.163 55.358C251.375 53.9943 252.293 52.6591 252.918 51.3523C253.543 50.0265 253.856 48.5966 253.856 47.0625C253.856 45.358 253.468 43.8902 252.691 42.6591C251.915 41.4091 250.854 40.4527 249.509 39.7898C248.165 39.108 246.64 38.767 244.935 38.767C243.155 38.767 241.602 39.1269 240.276 39.8466C238.951 40.5663 237.928 41.5985 237.208 42.9432C236.488 44.2879 236.129 45.8883 236.129 47.7443H224.452C224.452 43.9375 225.314 40.6326 227.038 37.8295C228.761 35.0265 231.176 32.858 234.282 31.3239C237.388 29.7898 240.968 29.0227 245.021 29.0227C249.187 29.0227 252.814 29.7614 255.901 31.2386C259.007 32.697 261.422 34.7235 263.146 37.3182C264.869 39.9129 265.731 42.8864 265.731 46.2386C265.731 48.4356 265.295 50.6042 264.424 52.7443C263.572 54.8845 262.047 57.2614 259.85 59.875C257.653 62.4697 254.557 65.5852 250.56 69.2216L242.066 77.5455V77.9432H266.498V88H225.021Z" fill="#EF243A"/>
</g>
<path d="M185.62 31.0143C179.395 31.2205 174.101 32.2857 169.594 34.23C166.622 35.5157 164.104 37.1393 161.919 39.181C161.458 39.6134 160.493 40.6328 160.071 41.1367C157.879 43.754 156.275 46.8981 155.374 50.3457C155.217 50.9385 155.183 51.1704 155.167 51.683C155.124 53.0975 155.609 54.3575 156.588 55.3683C157.213 56.0154 157.966 56.4364 158.846 56.6282L159.149 56.6941H187.582H216.014L216.317 56.6282C217.279 56.4163 218.088 55.9353 218.75 55.1764C219.593 54.2172 220.044 52.9401 219.996 51.6543C219.97 51.0129 219.885 50.6006 219.535 49.4495C218.599 46.3712 217.218 43.7311 215.299 41.3601C214.898 40.8647 213.814 39.6935 213.35 39.2583C210.739 36.7928 207.613 34.9058 203.859 33.5284C199.814 32.0452 195.203 31.2205 189.835 31.0229C189.159 30.9971 186.275 30.9914 185.62 31.0143ZM189.305 34.4304C195.195 34.6137 200.174 35.593 204.376 37.3942C210.752 40.1259 214.856 44.6502 216.653 50.9242C216.783 51.3823 216.807 51.494 216.818 51.746C216.826 51.9865 216.82 52.0724 216.773 52.2328C216.632 52.7425 216.221 53.1491 215.739 53.2608C215.474 53.3209 159.687 53.3209 159.422 53.2608C159.173 53.2035 158.966 53.0832 158.772 52.8885C158.337 52.4533 158.231 51.9665 158.417 51.2678C158.984 49.1345 159.92 47.0126 161.063 45.2716C164.302 40.3321 169.766 37.0047 177.234 35.4212C180.861 34.6509 185.148 34.3016 189.305 34.4304Z" fill="#EF243A"/>
<path d="M187.409 39.7309C186.837 39.8082 186.384 40.2835 186.283 40.9077C186.262 41.028 186.256 41.5291 186.262 42.4054C186.272 43.6825 186.275 43.7283 186.33 43.8915C186.535 44.4785 187.022 44.8536 187.582 44.8536C188.141 44.8536 188.629 44.4785 188.833 43.8915C188.889 43.7283 188.891 43.6825 188.902 42.4054C188.913 40.945 188.905 40.8333 188.759 40.5097C188.518 39.9657 187.974 39.6535 187.409 39.7309Z" fill="#EF243A"/>
<path d="M177.802 40.232C177.587 40.295 177.407 40.4095 177.227 40.6014C176.94 40.9049 176.832 41.2256 176.85 41.6953C176.861 41.9702 176.869 42.0045 176.972 42.225C177.089 42.4799 177.092 42.4799 178.491 44.0548C179.088 44.7248 179.196 44.8107 179.525 44.8966C179.984 45.0112 180.421 44.8795 180.758 44.5244C181.209 44.049 181.28 43.2759 180.928 42.7204C180.838 42.5801 179.109 40.6157 178.968 40.4897C178.658 40.2234 178.189 40.1203 177.802 40.232Z" fill="#EF243A"/>
<path d="M196.683 40.2292C196.514 40.2808 196.323 40.381 196.198 40.4898C196.055 40.6158 194.326 42.5802 194.236 42.7205C193.884 43.276 193.955 44.0491 194.406 44.5245C194.761 44.8996 195.254 45.0284 195.734 44.8709C196.018 44.7764 196.124 44.6791 197.121 43.5509C198.022 42.5315 198.091 42.4484 198.194 42.2222C198.298 41.996 198.306 41.9674 198.314 41.6896C198.33 41.2229 198.221 40.905 197.937 40.6015C197.611 40.2493 197.118 40.1032 196.683 40.2292Z" fill="#EF243A"/>
<path d="M156.776 60.5886C156.053 60.7804 155.557 61.4591 155.557 62.2608C155.557 63.034 156.055 63.7155 156.763 63.9102C156.901 63.9474 158.412 63.9532 170.085 63.9532H183.253L183.833 64.503C184.801 65.4164 186.911 67.4695 188.695 69.2363C189.17 69.7031 189.663 70.1784 189.796 70.2872C190.538 70.9143 191.434 71.278 192.455 71.3725C193.409 71.4612 194.53 71.1663 195.376 70.6051C195.472 70.5421 197.439 69.0187 199.75 67.2233L203.95 63.9532H211.097C217.393 63.9532 218.263 63.9474 218.401 63.9102C219.109 63.7155 219.607 63.034 219.607 62.2608C219.607 61.5192 219.167 60.8606 218.518 60.6287L218.321 60.5599H210.726H203.131L202.924 60.6372C202.812 60.6831 202.672 60.7489 202.614 60.789C202.553 60.8291 200.54 62.3926 198.139 64.2624C195.456 66.3499 193.695 67.7015 193.573 67.7673C193.274 67.9306 193.088 67.9706 192.725 67.9563C192.383 67.942 192.145 67.8676 191.885 67.6986C191.805 67.6471 191.235 67.1059 190.615 66.4959C189.003 64.9067 187.9 63.83 186.959 62.9252C185.27 61.2987 184.788 60.8635 184.52 60.726C184.138 60.5313 185.358 60.5456 170.443 60.5485C159.234 60.5513 156.898 60.5571 156.776 60.5886Z" fill="#EF9224"/>
<path d="M156.803 67.0312C156.389 67.1315 155.981 67.4464 155.771 67.8302C155.575 68.1852 155.506 68.6892 155.596 69.1015C155.679 69.4709 155.944 69.8947 156.233 70.1095C156.347 70.1954 157.415 70.7423 157.736 70.8798C158.494 71.2033 159.22 71.3637 160.077 71.3895C161.111 71.421 161.914 71.252 162.993 70.7824L163.486 70.5677L163.611 70.6364C164.03 70.8655 164.724 71.1232 165.238 71.2406C166.654 71.5641 167.998 71.4038 169.478 70.7395L169.857 70.5677L170.122 70.7022C171.007 71.1404 171.85 71.358 172.805 71.3895C173.857 71.4267 174.727 71.2434 175.822 70.7566L176.238 70.5705L176.521 70.708C177.433 71.1518 178.25 71.358 179.191 71.3895C180.085 71.4181 180.882 71.2864 181.686 70.9743C182.166 70.7853 183.398 70.2269 183.531 70.1353C183.716 70.0064 183.966 69.7029 184.069 69.4767C184.202 69.196 184.249 68.9498 184.236 68.6205C184.204 67.8359 183.701 67.1945 182.982 67.0312C182.558 66.9339 182.388 66.9768 181.37 67.4293C180.485 67.8244 180.201 67.9161 179.703 67.9647C179.199 68.0134 178.648 67.9332 178.157 67.7385C178.041 67.6927 177.701 67.5324 177.402 67.3835C176.726 67.0427 176.62 67.0083 176.275 67.0083C175.946 67.0112 175.883 67.0312 174.955 67.4436C173.929 67.9017 173.674 67.9705 173.027 67.9705C172.351 67.9705 171.962 67.8588 171.092 67.4178C170.376 67.0542 170.244 67.0083 169.912 67.0083C169.576 67.0055 169.509 67.0284 168.6 67.4321C167.529 67.9075 167.298 67.9705 166.638 67.9705C165.97 67.9705 165.604 67.8674 164.737 67.4293C163.979 67.0484 163.863 67.0083 163.523 67.0083C163.186 67.0083 163.112 67.0341 162.245 67.4207C161.158 67.9046 160.909 67.9733 160.236 67.9705C159.56 67.9676 159.231 67.8702 158.303 67.4064C157.974 67.2403 157.643 67.0856 157.566 67.0599C157.365 66.994 157.009 66.9797 156.803 67.0312Z" fill="#EF243A"/>
<path d="M204.681 67.0084C204.26 67.0829 203.836 67.3778 203.605 67.7529C203.48 67.9562 203.366 68.3084 203.342 68.5576C203.295 69.0988 203.544 69.7115 203.95 70.0523C204.117 70.1897 205.214 70.751 205.689 70.94C206.07 71.0917 206.691 71.2607 207.107 71.3294C207.507 71.3953 208.594 71.4039 208.963 71.3466C209.649 71.2349 210.249 71.0488 210.978 70.7252C211.208 70.6221 211.415 70.5391 211.436 70.5391C211.457 70.5391 211.606 70.6021 211.762 70.6823C212.367 70.9801 213.109 71.2235 213.748 71.3266C214.18 71.3981 215.013 71.4153 215.455 71.3581C215.97 71.2951 216.428 71.1862 216.876 71.0259C217.364 70.8512 218.729 70.2499 218.896 70.1353C219.204 69.9206 219.482 69.4853 219.57 69.0844C219.628 68.8239 219.607 68.3857 219.527 68.1366C219.445 67.8875 219.236 67.5582 219.055 67.3978C218.78 67.1544 218.364 66.9884 218.03 66.9884C217.783 66.9884 217.552 67.0685 216.754 67.4179C215.879 67.8045 215.553 67.9104 215.066 67.962C214.663 68.0049 214.201 67.962 213.79 67.8474C213.448 67.7529 213.348 67.7071 212.688 67.3749C212.006 67.0342 211.911 67.0027 211.468 67.0055C211.256 67.0055 211.062 67.0199 210.991 67.0428C210.925 67.0628 210.551 67.2232 210.156 67.395C209.281 67.7816 209.151 67.8302 208.78 67.9104C208.557 67.9562 208.39 67.9705 208.088 67.9705C207.383 67.9705 207.028 67.8675 206.055 67.3835C205.67 67.1945 205.352 67.0542 205.243 67.0313C205.076 66.9912 204.827 66.9826 204.681 67.0084Z" fill="#EF243A"/>
<path d="M159.136 73.3769C157.11 73.5573 155.451 75.0491 155.077 77.0192C154.918 77.8697 154.997 78.5455 155.395 79.7281C156.511 83.0268 158.306 85.7901 160.859 88.1267C165.591 92.462 172.76 95.0764 181.882 95.7951C184.851 96.0271 188.401 96.0643 191.413 95.8954C200.622 95.3713 207.995 93.0004 212.966 88.9657C215.431 86.967 217.311 84.5932 218.586 81.8786C219.095 80.7933 219.628 79.3186 219.771 78.6056C219.848 78.2162 219.856 77.4402 219.784 77.0593C219.49 75.4844 218.417 74.213 216.905 73.646C216.555 73.5172 216.073 73.4112 215.667 73.374C215.286 73.3396 159.517 73.3425 159.136 73.3769ZM215.697 76.8245C216.184 76.9362 216.593 77.3027 216.669 77.6979C216.699 77.8496 216.696 77.8668 216.574 78.2563C215.174 82.7147 212.035 86.2454 207.324 88.6536C202.293 91.2279 195.4 92.588 187.396 92.588C179.119 92.588 172.07 91.1448 167.033 88.4217C164.992 87.3163 163.361 86.0736 161.93 84.5302C160.758 83.2645 159.944 82.0933 159.223 80.633C158.709 79.5935 158.176 78.1618 158.173 77.8124C158.171 77.3972 158.587 76.9677 159.133 76.8245C159.258 76.793 163.831 76.7873 187.396 76.7844C212.088 76.7816 215.535 76.7873 215.697 76.8245Z" fill="#EF243A"/>
<defs>
<filter id="filter0_d_1_146" x="215.452" y="19.0227" width="58.0455" height="74.9773" filterUnits="userSpaceOnUse" color-interpolation-filters="sRGB">
<feFlood flood-opacity="0" result="BackgroundImageFix"/>
<feColorMatrix in="SourceAlpha" type="matrix" values="0 0 0 0 0 0 0 0 0 0 0 0 0 0 0 0 0 0 127 0" result="hardAlpha"/>
<feOffset dx="-1" dy="-2"/>
<feGaussianBlur stdDeviation="4"/>
<feComposite in2="hardAlpha" operator="out"/>
<feColorMatrix type="matrix" values="0 0 0 0 0 0 0 0 0 0 0 0 0 0 0 0 0 0 0.5 0"/>
<feBlend mode="normal" in2="BackgroundImageFix" result="effect1_dropShadow_1_146"/>
<feBlend mode="normal" in="SourceGraphic" in2="effect1_dropShadow_1_146" result="shape"/>
</filter>
</defs>
</svg>
